<svg width="81" height="21" viewBox="0 0 81 21" fill="none" xmlns="http://www.w3.org/2000/svg">
<rect width="81" height="20.8073" rx="2.22936" fill="#0084FF"/>
<rect x="7.43118" y="7.43121" width="8.91743" height="5.20184" fill="#0084FF"/>
<path fill-rule="evenodd" clip-rule="evenodd" d="M11.8899 4.45874C8.6068 4.45874 5.94495 6.92342 5.94495 9.96327C5.94495 11.6957 6.80944 13.2409 8.16043 14.2496V16.3486L10.1847 15.2379C10.7247 15.3871 11.2974 15.4678 11.8899 15.4678C15.173 15.4678 17.8349 13.0036 17.8349 9.96327C17.8349 6.92342 15.173 4.45874 11.8899 4.45874ZM12.4809 11.8716L10.9669 10.2571L8.0128 11.8716L11.2622 8.42204L12.8129 10.0366L15.7303 8.42204L12.4809 11.8716Z" fill="white"/>
<path d="M24.138 6.69635H24.8529V12.8405H28.6398V13.4587H24.138V6.69635ZM34.0309 11.1305H29.7803C29.8189 11.6587 30.0218 12.0869 30.3889 12.4154C30.756 12.7374 31.2197 12.8984 31.78 12.8984C32.0956 12.8984 32.3854 12.8437 32.6495 12.7342C32.9135 12.6183 33.1422 12.4508 33.3354 12.2319L33.7218 12.6762C33.4964 12.9467 33.213 13.1528 32.8717 13.2945C32.5368 13.4362 32.1665 13.507 31.7607 13.507C31.239 13.507 30.7753 13.3976 30.3696 13.1786C29.9703 12.9532 29.6579 12.644 29.4325 12.2512C29.2071 11.8583 29.0944 11.4139 29.0944 10.918C29.0944 10.4221 29.2007 9.97772 29.4132 9.58486C29.6322 9.192 29.9284 8.88608 30.302 8.66711C30.682 8.44813 31.107 8.33865 31.5772 8.33865C32.0473 8.33865 32.4692 8.44813 32.8427 8.66711C33.2162 8.88608 33.5093 9.192 33.7218 9.58486C33.9343 9.97128 34.0406 10.4157 34.0406 10.918L34.0309 11.1305ZM31.5772 8.92794C31.0877 8.92794 30.6755 9.08573 30.3406 9.40131C30.0122 9.71045 29.8254 10.1162 29.7803 10.6185H33.3837C33.3386 10.1162 33.1486 9.71045 32.8137 9.40131C32.4853 9.08573 32.0731 8.92794 31.5772 8.92794ZM38.1127 13.1496C37.9839 13.2655 37.8229 13.3557 37.6297 13.4201C37.4429 13.4781 37.2465 13.507 37.0404 13.507C36.5638 13.507 36.1967 13.3782 35.9391 13.1206C35.6814 12.863 35.5526 12.4991 35.5526 12.029V8.95692H34.6445V8.37729H35.5526V7.26633H36.2385V8.37729H37.7842V8.95692H36.2385V11.9903C36.2385 12.293 36.3126 12.5249 36.4607 12.6859C36.6153 12.8405 36.8343 12.9177 37.1176 12.9177C37.2593 12.9177 37.3946 12.8952 37.5234 12.8501C37.6586 12.805 37.7746 12.7406 37.8712 12.6569L38.1127 13.1496ZM39.4386 6.24231C39.5867 6.24231 39.7091 6.29383 39.8057 6.39688C39.9023 6.49348 39.9506 6.61585 39.9506 6.76398C39.9506 6.84126 39.9377 6.92499 39.912 7.01515C39.8926 7.09888 39.8637 7.1987 39.825 7.31463L39.4096 8.64779H38.9459L39.284 7.25667C39.1745 7.22446 39.0876 7.1665 39.0232 7.08278C38.9588 6.99261 38.9266 6.88635 38.9266 6.76398C38.9266 6.60941 38.9749 6.48382 39.0715 6.38722C39.1681 6.29061 39.2905 6.24231 39.4386 6.24231ZM42.6197 13.507C42.2075 13.507 41.8114 13.4491 41.4315 13.3332C41.0579 13.2108 40.7649 13.0594 40.5523 12.8791L40.8615 12.3381C41.074 12.5056 41.3413 12.644 41.6633 12.7535C41.9853 12.8566 42.3202 12.9081 42.668 12.9081C43.1317 12.9081 43.4731 12.8372 43.692 12.6956C43.9174 12.5474 44.0301 12.3413 44.0301 12.0773C44.0301 11.8905 43.969 11.7456 43.8466 11.6426C43.7242 11.5331 43.5697 11.4526 43.3829 11.401C43.1961 11.3431 42.9482 11.2883 42.639 11.2368C42.2268 11.1595 41.8952 11.0822 41.644 11.005C41.3928 10.9212 41.1771 10.7828 40.9967 10.5896C40.8228 10.3963 40.7359 10.1291 40.7359 9.78773C40.7359 9.36267 40.913 9.01489 41.2672 8.74439C41.6214 8.4739 42.1141 8.33865 42.7453 8.33865C43.0738 8.33865 43.4022 8.38373 43.7307 8.4739C44.0591 8.55762 44.3296 8.67033 44.5422 8.81201L44.2427 9.36267C43.8241 9.07285 43.3249 8.92794 42.7453 8.92794C42.3073 8.92794 41.9757 9.00523 41.7503 9.15979C41.5313 9.31436 41.4218 9.51724 41.4218 9.76841C41.4218 9.96162 41.483 10.1162 41.6053 10.2321C41.7342 10.348 41.8919 10.435 42.0787 10.493C42.2655 10.5445 42.5231 10.5992 42.8516 10.6572C43.2573 10.7345 43.5825 10.8117 43.8273 10.889C44.072 10.9663 44.2813 11.0983 44.4552 11.2851C44.6291 11.4719 44.716 11.7295 44.716 12.058C44.716 12.5023 44.5293 12.8566 44.1557 13.1206C43.7886 13.3782 43.2766 13.507 42.6197 13.507ZM51.5941 13.5167C50.9243 13.5167 50.3189 13.3686 49.7779 13.0723C49.2434 12.7761 48.8216 12.3671 48.5124 11.8454C48.2097 11.3173 48.0584 10.728 48.0584 10.0775C48.0584 9.42707 48.2097 8.841 48.5124 8.31933C48.8216 7.79122 49.2466 7.37903 49.7876 7.08278C50.3286 6.78652 50.934 6.63839 51.6038 6.63839C52.1061 6.63839 52.5698 6.72212 52.9949 6.88957C53.42 7.05701 53.7806 7.30175 54.0769 7.62377L53.6228 8.07781C53.0947 7.54326 52.4282 7.27599 51.6231 7.27599C51.0886 7.27599 50.6023 7.39835 50.1644 7.64309C49.7264 7.88782 49.3819 8.22272 49.1307 8.64779C48.886 9.07285 48.7636 9.54944 48.7636 10.0775C48.7636 10.6057 48.886 11.0822 49.1307 11.5073C49.3819 11.9324 49.7264 12.2673 50.1644 12.512C50.6023 12.7567 51.0886 12.8791 51.6231 12.8791C52.4346 12.8791 53.1012 12.6086 53.6228 12.0676L54.0769 12.5217C53.7806 12.8437 53.4168 13.0916 52.9853 13.2655C52.5602 13.433 52.0965 13.5167 51.5941 13.5167ZM58.045 8.33865C58.6826 8.33865 59.1881 8.52542 59.5617 8.89896C59.9417 9.26606 60.1316 9.80383 60.1316 10.5123V13.4587H59.4457V10.5799C59.4457 10.0518 59.3137 9.64926 59.0497 9.37233C58.7856 9.09539 58.4088 8.95692 57.9194 8.95692C57.3719 8.95692 56.9372 9.12115 56.6152 9.44961C56.2996 9.77163 56.1418 10.2192 56.1418 10.7924V13.4587H55.4559V6.29061H56.1418V9.26606C56.3286 8.9698 56.5862 8.74117 56.9147 8.58016C57.2431 8.41915 57.6199 8.33865 58.045 8.33865ZM63.7713 8.33865C64.4347 8.33865 64.9435 8.5061 65.2977 8.841C65.6519 9.16946 65.829 9.65892 65.829 10.3094V13.4587H65.1721V12.6666C65.0175 12.9306 64.7889 13.1367 64.4862 13.2849C64.19 13.433 63.8357 13.507 63.4236 13.507C62.8568 13.507 62.406 13.3718 62.0711 13.1013C61.7362 12.8308 61.5687 12.4734 61.5687 12.029C61.5687 11.5975 61.7233 11.2497 62.0324 10.9856C62.348 10.7216 62.8471 10.5896 63.5298 10.5896H65.1431V10.2804C65.1431 9.84247 65.0208 9.51079 64.776 9.28538C64.5313 9.05353 64.1739 8.9376 63.7037 8.9376C63.3817 8.9376 63.0726 8.99235 62.7763 9.10183C62.48 9.20488 62.2256 9.34979 62.0131 9.53656L61.704 9.02455C61.9616 8.80557 62.2707 8.63812 62.6314 8.5222C62.992 8.39983 63.372 8.33865 63.7713 8.33865ZM63.5298 12.9661C63.9162 12.9661 64.2479 12.8791 64.5249 12.7052C64.8018 12.5249 65.0079 12.2673 65.1431 11.9324V11.1016H63.5491C62.6797 11.1016 62.245 11.4043 62.245 12.0097C62.245 12.3059 62.3577 12.541 62.5831 12.7149C62.8085 12.8823 63.1241 12.9661 63.5298 12.9661ZM70.368 13.1496C70.2392 13.2655 70.0782 13.3557 69.885 13.4201C69.6982 13.4781 69.5017 13.507 69.2957 13.507C68.8191 13.507 68.452 13.3782 68.1944 13.1206C67.9367 12.863 67.8079 12.4991 67.8079 12.029V8.95692H66.8998V8.37729H67.8079V7.26633H68.4938V8.37729H70.0395V8.95692H68.4938V11.9903C68.4938 12.293 68.5679 12.5249 68.716 12.6859C68.8706 12.8405 69.0896 12.9177 69.3729 12.9177C69.5146 12.9177 69.6499 12.8952 69.7787 12.8501C69.9139 12.805 70.0299 12.7406 70.1265 12.6569L70.368 13.1496Z" fill="white"/>
</svg>
