<svg width="93" height="19" viewBox="0 0 93 19" fill="none" xmlns="http://www.w3.org/2000/svg">
<path d="M0.3125 0.25C0.3125 0.111929 0.424429 0 0.5625 0H11.5C11.6381 0 11.75 0.111929 11.75 0.25V2.07975C11.75 2.12961 11.7351 2.17833 11.7072 2.21965L3.37157 14.5648C3.25967 14.7305 3.37795 14.954 3.57791 14.9547L12.079 14.9835C12.2167 14.984 12.3281 15.0958 12.3281 15.2335V16.8906C12.3281 17.0287 12.2162 17.1406 12.0781 17.1406H0.25C0.111929 17.1406 0 17.0287 0 16.8906V14.9975C0 14.9482 0.0145952 14.9 0.0419482 14.8589L8.22546 2.57612C8.33615 2.40997 8.21705 2.1875 8.0174 2.1875H0.5625C0.424429 2.1875 0.3125 2.07557 0.3125 1.9375V0.25Z" fill="#565656"/>
<path d="M18.2375 16.875C17.0396 16.0729 16.149 15 15.5656 13.6562C14.9927 12.3021 14.7062 10.776 14.7062 9.07812C14.7062 7.38021 14.9719 5.85938 15.5031 4.51562C16.0448 3.16146 16.8469 2.07292 17.9094 1.25C18.9823 0.416667 20.1594 0 21.4406 0C23.8573 0 25.6281 0.828125 26.7531 2.48438C27.8781 4.14062 28.4406 6.17708 28.4406 8.59375V9.29688C28.4406 9.43495 28.3287 9.54688 28.1906 9.54688H17.8403C17.6987 9.54688 17.5851 9.66448 17.5933 9.8058C17.6879 11.4543 18.1214 12.8628 18.8937 14.0312C19.7167 15.2604 20.9458 15.875 22.5812 15.875C23.6315 15.775 25.0802 15.2236 26.9275 14.2208C27.0536 14.1524 27.2119 14.2023 27.2744 14.3314L28.0195 15.8713C28.0658 15.967 28.0468 16.082 27.9695 16.1552C26.6276 17.4267 24.8211 18.0625 22.55 18.0625C20.8729 18.0625 19.4354 17.6667 18.2375 16.875ZM25.4566 7.46875C25.6005 7.46875 25.7148 7.34682 25.7039 7.20334C25.4501 3.86986 24.2269 2.20312 22.0344 2.20312C19.5602 2.20312 18.1176 3.86629 17.7064 7.19261C17.6882 7.33978 17.804 7.46875 17.9523 7.46875H25.4566Z" fill="#565656"/>
<path d="M44.2406 17.4219C44.2406 17.5599 44.1287 17.6719 43.9906 17.6719H41.8344C39.824 17.6719 38.3865 17.4635 37.5219 17.0469C37.0219 16.8073 36.626 16.5312 36.3344 16.2188C35.5635 15.4167 35.1625 13.6458 35.1312 10.9062V2.96875C35.1312 2.83068 35.0193 2.71875 34.8812 2.71875H30.2562C30.1182 2.71875 30.0062 2.60682 30.0062 2.46875V0.78125C30.0062 0.643179 30.1182 0.53125 30.2562 0.53125H37.725C37.8631 0.53125 37.975 0.643179 37.975 0.78125V10.7656C37.975 12.8385 38.1625 14.1094 38.5375 14.5781C38.9229 15.0469 39.4021 15.3177 39.975 15.3906C40.5479 15.4531 41.1312 15.4844 41.725 15.4844H43.9906C44.1287 15.4844 44.2406 15.5963 44.2406 15.7344V17.4219Z" fill="#565656"/>
<path d="M47.3687 0.78125C47.3687 0.643179 47.4807 0.53125 47.6187 0.53125H58.5562C58.6943 0.53125 58.8062 0.643179 58.8062 0.78125V0.809526V2.611C58.8062 2.66086 58.7913 2.70958 58.7634 2.7509L50.4278 15.0961C50.3159 15.2618 50.4342 15.4853 50.6342 15.486L59.1352 15.5148C59.273 15.5152 59.3844 15.627 59.3844 15.7648V17.4219C59.3844 17.5599 59.2724 17.6719 59.1344 17.6719H47.3062C47.1682 17.6719 47.0562 17.5599 47.0562 17.4219V15.5288C47.0562 15.4794 47.0708 15.4312 47.0982 15.3902L55.2817 3.10737C55.3924 2.94122 55.2733 2.71875 55.0737 2.71875H47.6187C47.4807 2.71875 47.3687 2.60682 47.3687 2.46875V0.78125Z" fill="#565656"/>
<path d="M65.4031 16.875C64.2052 16.0729 63.3146 15 62.7312 13.6562C62.1583 12.3021 61.8719 10.776 61.8719 9.07812C61.8719 7.38021 62.1375 5.85938 62.6687 4.51562C63.2104 3.16146 64.0125 2.07292 65.075 1.25C66.1479 0.416667 67.325 0 68.6062 0C71.0229 0 72.7937 0.828125 73.9187 2.48438C75.0437 4.14062 75.6062 6.17708 75.6062 8.59375V9.29688C75.6062 9.43495 75.4943 9.54688 75.3562 9.54688H65.0059C64.8644 9.54688 64.7508 9.66448 64.7589 9.8058C64.8535 11.4543 65.287 12.8628 66.0594 14.0312C66.8823 15.2604 68.1115 15.875 69.7469 15.875C70.7971 15.775 72.2458 15.2236 74.0931 14.2208C74.2192 14.1524 74.3775 14.2023 74.44 14.3314L75.1851 15.8713C75.2314 15.967 75.2124 16.082 75.1351 16.1552C73.7932 17.4267 71.9867 18.0625 69.7156 18.0625C68.0385 18.0625 66.601 17.6667 65.4031 16.875ZM72.6222 7.46875C72.7661 7.46875 72.8805 7.34682 72.8695 7.20334C72.6157 3.86986 71.3926 2.20312 69.2 2.20312C66.7259 2.20312 65.2832 3.86629 64.872 7.19261C64.8538 7.33978 64.9696 7.46875 65.1179 7.46875H72.6222Z" fill="#565656"/>
<path d="M87.5938 0.015625C91.1458 0.015625 92.9219 2.26562 92.9219 6.76562V17.4219C92.9219 17.5599 92.8099 17.6719 92.6719 17.6719H90.3281C90.1901 17.6719 90.0781 17.5599 90.0781 17.4219V7.10938C90.0781 5.90104 90.0156 5.03646 89.8906 4.51562C89.7656 3.99479 89.5781 3.56771 89.3281 3.23438C88.7969 2.54688 87.9271 2.20312 86.7188 2.20312C85.5 2.20312 84.4688 2.55729 83.625 3.26562C82.7812 3.97396 82.3594 4.91146 82.3594 6.07812V17.4219C82.3594 17.5599 82.2474 17.6719 82.1094 17.6719H79.7656C79.6276 17.6719 79.5156 17.5599 79.5156 17.4219V9.10156V0.78125C79.5156 0.643179 79.6276 0.53125 79.7656 0.53125H81.8951C82.0251 0.53125 82.1334 0.630816 82.1442 0.760315L82.2244 1.71441C82.2439 1.94602 82.5515 2.03517 82.7089 1.86411C83.8426 0.631788 85.4709 0.015625 87.5938 0.015625Z" fill="#565656"/>
</svg>
