<svg width="191" height="32" viewBox="0 0 191 32" fill="none" xmlns="http://www.w3.org/2000/svg">
<path d="M0.543116 1.19118C0.543116 1.05311 0.655045 0.941184 0.793116 0.941184L20.1712 0.941184C20.3092 0.941184 20.4212 1.05311 20.4212 1.19118V4.68596C20.4212 4.73507 20.4067 4.78308 20.3796 4.82402L5.65998 27.0461C5.55012 27.2119 5.6686 27.4334 5.86754 27.4341L21.1768 27.487C21.3145 27.4875 21.4259 27.5993 21.4259 27.737V31.058C21.4259 31.196 21.314 31.308 21.1759 31.308L0.250001 31.308C0.11193 31.308 0 31.196 0 31.058L0 27.4516C0 27.403 0.0141549 27.3555 0.0407341 27.3148L14.4928 5.20339C14.6015 5.03711 14.4822 4.81662 14.2835 4.81662L0.793116 4.81662C0.655044 4.81662 0.543116 4.70469 0.543116 4.56662L0.543116 1.19118Z" fill="#484848"/>
<path d="M38.9957 29.8962C36.9138 28.4752 35.3659 26.5744 34.3521 24.1938C33.3564 21.7947 32.8585 19.0911 32.8585 16.083C32.8585 13.075 33.3201 10.3806 34.2434 8.00001C35.1848 5.60093 36.5788 3.67244 38.4254 2.21454C40.2901 0.738185 42.3359 7.95498e-06 44.5626 7.95498e-06C48.7627 7.95498e-06 51.8404 1.46714 53.7956 4.40139C55.7508 7.33565 56.7284 10.9435 56.7284 15.2249V16.6635C56.7284 16.8016 56.6165 16.9135 56.4784 16.9135L38.114 16.9135C37.9725 16.9135 37.8591 17.0309 37.8657 17.1723C38.0065 20.179 38.7634 22.741 40.1363 24.8581C41.5665 27.0358 43.7027 28.1246 46.545 28.1246C48.402 27.9443 50.9761 26.9362 54.2672 25.1004C54.3938 25.0297 54.5545 25.0802 54.6167 25.2112L56.0562 28.2437C56.1011 28.3384 56.0823 28.4515 56.0077 28.5252C53.6657 30.8417 50.4934 32 46.4907 32C43.576 32 41.0777 31.2987 38.9957 29.8962ZM51.7383 13.2318C51.8821 13.2318 51.9963 13.1087 51.9866 12.9652C51.5794 6.92382 49.4487 3.90312 45.5946 3.90312C41.2434 3.90312 38.7278 6.92027 38.0478 12.9546C38.0313 13.1017 38.1468 13.2318 38.2949 13.2318L51.7383 13.2318Z" fill="#484848"/>
<path d="M89.5202 31.0737C89.5119 31.2054 89.4027 31.308 89.2707 31.308H85.5679C82.0738 31.308 79.5755 30.9389 78.0729 30.2007C77.2039 29.7762 76.5159 29.2872 76.009 28.7336C74.6694 27.3126 73.9724 24.1753 73.918 19.3218V5.06661C73.918 4.92854 73.8061 4.81661 73.668 4.81661L65.2609 4.81661C65.1229 4.81661 65.0109 4.70468 65.0109 4.56661V1.19118C65.0109 1.0531 65.1229 0.941176 65.2609 0.941176L78.6104 0.941176C78.7485 0.941176 78.8604 1.05311 78.8604 1.19118V19.0727C78.8604 22.7451 79.1863 24.9965 79.838 25.827C80.5079 26.6574 81.3406 27.1373 82.3363 27.2664C83.3321 27.3772 84.3459 27.4325 85.3778 27.4325H89.4836C89.6279 27.4325 89.7422 27.5543 89.7331 27.6983L89.5202 31.0737Z" fill="#484848"/>
<path d="M100.748 1.19118C100.748 1.05311 100.86 0.941184 100.998 0.941184L120.376 0.941184C120.514 0.941184 120.626 1.05311 120.626 1.19118V4.68596C120.626 4.73507 120.612 4.78308 120.584 4.82402L105.865 27.0461C105.755 27.2119 105.873 27.4334 106.072 27.4341L121.382 27.487C121.519 27.4875 121.631 27.5993 121.631 27.737V31.058C121.631 31.196 121.519 31.308 121.381 31.308H100.455C100.317 31.308 100.205 31.196 100.205 31.058V27.4516C100.205 27.403 100.219 27.3555 100.246 27.3148L114.698 5.20339C114.806 5.03711 114.687 4.81662 114.488 4.81662L100.998 4.81662C100.86 4.81662 100.748 4.70469 100.748 4.56662V1.19118Z" fill="#484848"/>
<path d="M139.201 29.8962C137.119 28.4752 135.571 26.5744 134.557 24.1938C133.561 21.7947 133.063 19.0911 133.063 16.083C133.063 13.075 133.525 10.3806 134.448 8.00001C135.39 5.60093 136.784 3.67244 138.63 2.21454C140.495 0.738185 142.541 7.95498e-06 144.767 7.95498e-06C148.968 7.95498e-06 152.045 1.46714 154 4.40139C155.956 7.33565 156.933 10.9435 156.933 15.2249V16.6635C156.933 16.8016 156.821 16.9135 156.683 16.9135L138.319 16.9135C138.177 16.9135 138.064 17.0309 138.071 17.1723C138.211 20.179 138.968 22.741 140.341 24.8581C141.771 27.0358 143.908 28.1246 146.75 28.1246C148.607 27.9443 151.181 26.9362 154.472 25.1004C154.599 25.0297 154.759 25.0802 154.822 25.2112L156.261 28.2437C156.306 28.3384 156.287 28.4515 156.213 28.5252C153.871 30.8417 150.698 32 146.696 32C143.781 32 141.282 31.2987 139.201 29.8962ZM151.943 13.2318C152.087 13.2318 152.201 13.1087 152.191 12.9652C151.784 6.92382 149.654 3.90312 145.799 3.90312C141.448 3.90312 138.933 6.92027 138.253 12.9546C138.236 13.1017 138.352 13.2318 138.5 13.2318L151.943 13.2318Z" fill="#484848"/>
<path d="M180.858 0.0276896C187.031 0.0276896 190.118 4.01385 190.118 11.9862V31.058C190.118 31.196 190.006 31.308 189.868 31.308L185.425 31.308C185.287 31.308 185.175 31.196 185.175 31.058V12.5952C185.175 10.4544 185.067 8.92273 184.849 8.00001C184.632 7.07728 184.306 6.32065 183.872 5.73011C182.949 4.51212 181.437 3.90312 179.337 3.90312C177.219 3.90312 175.426 4.53057 173.96 5.78547C172.494 7.04038 171.76 8.70127 171.76 10.7682V31.058C171.76 31.196 171.648 31.308 171.51 31.308H167.068C166.93 31.308 166.818 31.196 166.818 31.058V1.19119C166.818 1.05311 166.93 0.941184 167.068 0.941184L171.123 0.941184C171.253 0.941184 171.361 1.04098 171.372 1.17064L171.568 3.54774C171.587 3.7807 171.893 3.86635 172.041 3.68486C174.02 1.24675 176.959 0.0276896 180.858 0.0276896Z" fill="#484848"/>
</svg>
